<?xml version="1.0" encoding="UTF-8"?>
<svg width="40px" height="40px" viewBox="0 0 40 40" version="1.1" xmlns="http://www.w3.org/2000/svg" xmlns:xlink="http://www.w3.org/1999/xlink">
    <!-- Generator: Sketch 50.2 (55047) - http://www.bohemiancoding.com/sketch -->
    <title>fare-selected</title>
    <desc>Created with Sketch.</desc>
    <defs></defs>
    <g id="Page-1" stroke="none" stroke-width="1" fill="none" fill-rule="evenodd">
        <g id="fare-selected" fill="#FFFFFF" fill-rule="nonzero">
            <path d="M20,39.7530864 C9.08641975,39.7530864 0.24691358,30.9135802 0.24691358,20 C0.24691358,9.08641975 9.08641975,0.24691358 20,0.24691358 C30.9135802,0.24691358 39.7530864,9.08641975 39.7530864,20 C39.7530864,30.9135802 30.9135802,39.7530864 20,39.7530864 Z M20,3.20987654 C10.7160494,3.20987654 3.20987654,10.7160494 3.20987654,20 C3.20987654,29.2839506 10.7160494,36.7901235 20,36.7901235 C29.2839506,36.7901235 36.7901235,29.2839506 36.7901235,20 C36.7901235,10.7160494 29.2839506,3.20987654 20,3.20987654 Z M18.4197531,26.4691358 C17.8271605,27.0617284 16.8888889,27.0617284 16.2962963,26.4691358 L11.0123457,21.037037 C10.4197531,20.4444444 10.4197531,19.4567901 11.0123457,18.8641975 C11.6049383,18.2716049 12.5432099,18.2716049 13.1358025,18.8641975 L17.3333333,23.2098765 L26.8148148,13.5308642 C27.4074074,12.9382716 28.345679,12.9382716 28.9382716,13.5308642 C29.5308642,14.1234568 29.5308642,15.1111111 28.9382716,15.7037037 L18.4197531,26.4691358 Z" id="Shape"></path>
        </g>
    </g>
</svg>