<?xml version="1.0" encoding="UTF-8"?>
<svg width="24px" height="31px" viewBox="0 0 24 31" version="1.1" xmlns="http://www.w3.org/2000/svg" xmlns:xlink="http://www.w3.org/1999/xlink">
    <!-- Generator: Sketch 50.2 (55047) - http://www.bohemiancoding.com/sketch -->
    <title>Shape</title>
    <desc>Created with Sketch.</desc>
    <defs></defs>
    <g id="Page-1" stroke="none" stroke-width="1" fill="none" fill-rule="evenodd">
        <g id="noun_1479376_cc" transform="translate(0.000000, -1.000000)" fill="#563D7C" fill-rule="nonzero">
            <g id="Group" transform="translate(0.000000, 0.637820)">
                <path d="M10.6038502,0.36218 L11.8540362,1.60100065 L14.2521202,3.99908467 L8.58082196,9.65901757 L8.05801691,10.1818226 L8.58082196,10.6932623 L13.308798,15.4212384 L13.8202378,15.9326781 L14.3316775,15.4212384 L20.0029757,9.74994018 L22.7647502,12.5117147 L24.0035708,13.7505353 L24.0035708,12.0002749 L24.0035708,1.08956093 L24.0035708,0.36218 L23.2761899,0.36218 L12.3654759,0.36218 L10.6038502,0.36218 Z M14.1271016,1.81694187 L22.548809,1.81694187 L22.548809,10.2386492 L20.5144154,8.2042557 L20.0029757,7.69281598 L19.491536,8.2042557 L13.8202378,13.8755539 L10.1151411,10.1818226 L15.7864393,4.51052439 L16.3092444,3.99908467 L15.7864393,3.47627962 L14.1271016,1.81694187 Z M10.1833331,15.3303158 L9.67189336,15.8531208 L4.00059514,21.5244191 L1.23882065,18.7626446 L0,17.5124586 L0,19.2740843 L0,30.1847983 L0,30.9121792 L0.727380934,30.9121792 L11.6380949,30.9121792 L13.3997206,30.9121792 L12.1495347,29.6733586 L9.75145065,27.2752746 L15.4227489,21.6039763 L15.9455539,21.0925366 L15.4227489,20.5810969 L10.6947728,15.8531208 L10.1833331,15.3303158 Z M10.1833331,17.38744 L13.8884297,21.0925366 L8.21713149,26.7638348 L7.69432644,27.2752746 L8.21713149,27.7867143 L9.88783457,29.4574174 L1.45476187,29.4574174 L1.45476187,21.0243447 L3.48915542,23.0587382 L4.00059514,23.5815433 L4.51203486,23.0587382 L10.1833331,17.38744 Z" id="Shape"></path>
            </g>
        </g>
    </g>
</svg>