<?xml version="1.0" encoding="UTF-8"?>
<svg width="25px" height="23px" viewBox="0 0 25 23" version="1.1" xmlns="http://www.w3.org/2000/svg" xmlns:xlink="http://www.w3.org/1999/xlink">
    <!-- Generator: Sketch 50.2 (55047) - http://www.bohemiancoding.com/sketch -->
    <title>noun_1182563_cc</title>
    <desc>Created with Sketch.</desc>
    <defs></defs>
    <g id="Page-1" stroke="none" stroke-width="1" fill="none" fill-rule="evenodd">
        <g id="noun_1182563_cc" fill="#563D7C" fill-rule="nonzero">
            <path d="M23.7834982,5.58741599 L23.5968034,5.58741599 L23.5968034,5.13401453 C23.5968034,4.46724769 23.06339,3.93383421 22.3966231,3.93383421 L21.756527,3.93383421 L21.756527,3.2403967 C21.756527,1.77350964 20.5830173,0.6 19.1161303,0.6 L5.83413474,0.6 C4.36724769,0.6 3.19373805,1.77350964 3.19373805,3.2403967 L3.19373805,3.93383421 L2.55364188,3.93383421 C1.88687503,3.93383421 1.35346156,4.46724769 1.35346156,5.13401453 L1.35346156,5.58741599 L1.24677886,5.58741599 C0.846718758,5.58741599 0.5,5.90746407 0.5,6.33419485 L0.5,9.48133435 C0.5,9.88139445 0.820048085,10.2281132 1.24677886,10.2281132 L2.0202284,10.2281132 C2.42028851,10.2281132 2.76700727,9.90806513 2.76700727,9.48133435 L2.76700727,6.30752418 C2.76700727,5.90746407 2.44695918,5.56074531 2.0202284,5.56074531 L1.94021638,5.56074531 L1.94021638,5.10734386 C1.94021638,4.7606251 2.23359379,4.46724769 2.58031255,4.46724769 L3.22040872,4.46724769 L3.22040872,19.7228731 C3.22040872,20.4163106 3.72715152,20.9763947 4.36724769,21.1097481 L4.36724769,22.0432217 C4.36724769,22.4699524 4.71396645,22.7900005 5.11402655,22.7900005 L7.00764439,22.7900005 C7.43437517,22.7900005 7.75442325,22.4432818 7.75442325,22.0432217 L7.75442325,21.1364188 L17.2758538,21.1364188 L17.2758538,22.0432217 C17.2758538,22.4699524 17.6225725,22.7900005 18.0226326,22.7900005 L19.9162505,22.7900005 C20.3429812,22.7900005 20.6630293,22.4432818 20.6630293,22.0432217 L20.6630293,21.1097481 C21.2764548,20.9763947 21.756527,20.4163106 21.756527,19.7495437 L21.756527,4.49391836 L22.3966231,4.49391836 C22.7433419,4.49391836 23.0367193,4.78729577 23.0367193,5.13401453 L23.0367193,5.58741599 L22.9833779,5.58741599 C22.5833178,5.58741599 22.2365991,5.90746407 22.2365991,6.33419485 L22.2365991,9.48133435 C22.2365991,9.88139445 22.5566472,10.2281132 22.9833779,10.2281132 L23.7568275,10.2281132 C24.1568876,10.2281132 24.5036063,9.90806513 24.5036063,9.48133435 L24.5036063,6.30752418 C24.530277,5.90746407 24.1835583,5.58741599 23.7834982,5.58741599 Z M6.84762035,2.60030053 C6.84762035,2.30692312 7.08765641,2.09355773 7.35436315,2.09355773 L17.8892793,2.09355773 C18.1826567,2.09355773 18.3960221,2.33359379 18.3960221,2.60030053 L18.3960221,3.40042074 C18.3960221,3.69379815 18.155986,3.90716354 17.8892793,3.90716354 L7.35436315,3.90716354 C7.06098573,3.90716354 6.84762035,3.66712748 6.84762035,3.40042074 L6.84762035,2.60030053 Z M7.35436315,18.8960822 L4.7673078,18.8960822 C4.58061308,18.8960822 4.44725971,18.7360581 4.44725971,18.5760341 L4.47393038,17.4025244 C4.47393038,17.2158297 4.6606251,17.0558057 4.84731982,17.0824764 L7.38103382,17.5092071 C7.54105786,17.5358778 7.64774056,17.6692312 7.64774056,17.8025845 L7.67441123,18.5226927 C7.7010819,18.7360581 7.54105786,18.8960822 7.35436315,18.8960822 Z M5.2740506,15.8289547 C4.82064914,15.6956013 4.44725971,15.2155292 4.44725971,14.7354571 L4.44725971,6.04081744 C4.44725971,5.40072127 4.98067318,4.89397847 5.59409868,4.89397847 L19.4361783,4.89397847 C20.0762745,4.89397847 20.609688,5.42739194 20.5830173,6.04081744 C20.5830173,8.94792087 20.5830173,11.8283536 20.5830173,14.7354571 C20.5830173,15.1888585 20.2096279,15.6956013 19.7562264,15.8289547 C15.0355172,17.1358177 10.0214305,17.1358177 5.2740506,15.8289547 Z M17.3558658,18.5493634 L17.3825365,17.8292552 C17.3825365,17.6692312 17.4892192,17.5625485 17.6492432,17.5358778 L20.1829572,17.109147 C20.3696519,17.0824764 20.5563466,17.2158297 20.5563466,17.4291951 L20.5830173,18.6027048 C20.5830173,18.7893995 20.4496639,18.9227528 20.2629692,18.9227528 L17.6759139,18.9227528 C17.5158898,18.8960822 17.3558658,18.7360581 17.3558658,18.5493634 Z" id="Shape"></path>
        </g>
    </g>
</svg>