<?xml version="1.0" encoding="UTF-8"?>
<svg width="24px" height="31px" viewBox="0 0 24 31" version="1.1" xmlns="http://www.w3.org/2000/svg" xmlns:xlink="http://www.w3.org/1999/xlink">
    <!-- Generator: Sketch 50.2 (55047) - http://www.bohemiancoding.com/sketch -->
    <title>mode-transfer-white</title>
    <desc>Created with Sketch.</desc>
    <defs></defs>
    <g id="Page-1" stroke="none" stroke-width="1" fill="none" fill-rule="evenodd" opacity="0.702232143">
        <g id="mode-transfer-white" fill="#FFFFFF" fill-rule="nonzero">
            <path d="M10.6038502,1.77635684e-15 L11.8540362,1.23882065 L14.2521202,3.63690467 L8.58082196,9.29683757 L8.05801691,9.8196426 L8.58082196,10.3310823 L13.308798,15.0590584 L13.8202378,15.5704981 L14.3316775,15.0590584 L20.0029757,9.38776018 L22.7647502,12.1495347 L24.0035708,13.3883553 L24.0035708,11.6380949 L24.0035708,0.72738093 L24.0035708,1.77635684e-15 L23.2761899,1.77635684e-15 L12.3654759,1.77635684e-15 L10.6038502,1.77635684e-15 Z M14.1271016,1.45476187 L22.548809,1.45476187 L22.548809,9.8764692 L20.5144154,7.8420757 L20.0029757,7.33063598 L19.491536,7.8420757 L13.8202378,13.5133739 L10.1151411,9.8196426 L15.7864393,4.14834439 L16.3092444,3.63690467 L15.7864393,3.11409962 L14.1271016,1.45476187 Z M10.1833331,14.9681358 L9.67189336,15.4909408 L4.00059514,21.1622391 L1.23882065,18.4004646 L0,17.1502786 L0,18.9119043 L0,29.8226183 L0,30.5499992 L0.727380934,30.5499992 L11.6380949,30.5499992 L13.3997206,30.5499992 L12.1495347,29.3111786 L9.75145065,26.9130946 L15.4227489,21.2417963 L15.9455539,20.7303566 L15.4227489,20.2189169 L10.6947728,15.4909408 L10.1833331,14.9681358 Z M10.1833331,17.02526 L13.8884297,20.7303566 L8.21713149,26.4016548 L7.69432644,26.9130946 L8.21713149,27.4245343 L9.88783457,29.0952374 L1.45476187,29.0952374 L1.45476187,20.6621647 L3.48915542,22.6965582 L4.00059514,23.2193633 L4.51203486,22.6965582 L10.1833331,17.02526 Z" id="Shape"></path>
        </g>
    </g>
</svg>