<?xml version="1.0" encoding="UTF-8"?>
<svg width="20px" height="20px" viewBox="0 0 20 20" version="1.1" xmlns="http://www.w3.org/2000/svg" xmlns:xlink="http://www.w3.org/1999/xlink">
    <!-- Generator: Sketch 50.2 (55047) - http://www.bohemiancoding.com/sketch -->
    <title>mode-ferry</title>
    <desc>Created with Sketch.</desc>
    <defs></defs>
    <g id="Page-1" stroke="none" stroke-width="1" fill="none" fill-rule="evenodd">
        <g id="mode-ferry" fill="#563D7C" fill-rule="nonzero">
            <path d="M8.125,3.75 C7.75,3.75 7.5,4 7.5,4.375 C7.5,4.75 7.75,5 8.125,5 C8.5,5 8.75,4.75 8.75,4.375 C8.75,4 8.5,3.75 8.125,3.75 Z M11.875,3.75 C11.5,3.75 11.25,4 11.25,4.375 C11.25,4.75 11.5,5 11.875,5 C12.25,5 12.5,4.75 12.5,4.375 C12.5,4 12.25,3.75 11.875,3.75 Z M20,12.375 L20,7.5 C20,6.75 19.5,6.25 18.75,6.25 L16.25,5.875 L16.25,1.25 C16.25,0.5 15.75,0 15,0 L5,0 C4.25,0 3.75,0.5 3.75,1.25 L3.75,5.875 L1.25,6.25 C0.5,6.25 0,6.75 0,7.5 L0,12.375 C0,12.75 0.125,13.125 0.375,13.375 L3.625,16.625 C3.5,17.125 3,17.5 2.5,17.5 C1.75,17.5 1.25,17 1.25,16.25 C1.25,15.5 0.75,15 0,15 L0,19 C0.625,19.625 1.5,20 2.5,20 C3.5,20 4.375,19.625 5,19 C5.625,19.625 6.5,20 7.5,20 C8.5,20 9.375,19.625 10,19 C10.625,19.625 11.5,20 12.5,20 C13.5,20 14.375,19.625 15,19 C15.625,19.625 16.5,20 17.5,20 C18.5,20 19.375,19.625 20,19 L20,15 C19.25,15 18.75,15.5 18.75,16.25 C18.75,17 18.25,17.5 17.5,17.5 C17,17.5 16.5,17.125 16.375,16.75 L19.625,13.5 C19.875,13.125 20,12.75 20,12.375 Z M8.75,16.25 C8.75,17 8.25,17.5 7.5,17.5 C7.5,17.125 7.375,16.875 7.125,16.625 L2.5,12 L2.5,8.625 L8.875,7.75 L9.875,15 C9.25,15.125 8.75,15.625 8.75,16.25 Z M6.25,5.5 L6.25,2.5 L13.75,2.5 L13.75,5.5 L10,5 L6.25,5.5 Z M17.5,12 L12.875,16.625 C12.625,16.875 12.5,17.125 12.5,17.5 C11.75,17.5 11.25,17 11.25,16.25 C11.25,15.625 10.75,15.125 10.125,15 L11,7.625 L17.5,8.625 L17.5,12 Z" id="Shape"></path>
        </g>
    </g>
</svg>