<?xml version="1.0" encoding="UTF-8"?>
<svg width="10px" height="16px" viewBox="0 0 10 16" version="1.1" xmlns="http://www.w3.org/2000/svg" xmlns:xlink="http://www.w3.org/1999/xlink">
    <!-- Generator: Sketch 50.2 (55047) - http://www.bohemiancoding.com/sketch -->
    <title>mode-walk-white</title>
    <desc>Created with Sketch.</desc>
    <defs></defs>
    <g id="Page-1" stroke="none" stroke-width="1" fill="none" fill-rule="evenodd" opacity="0.703683036">
        <g id="mode-walk-white" fill="#FFFFFF" fill-rule="nonzero">
            <path d="M0.164948454,7.35670103 L0.527835052,6.69690722 C1.08865979,5.6742268 1.92989691,4.83298969 2.95257732,4.27216495 C3.52989691,3.95876289 3.79381443,3.87628866 4.05773196,3.87628866 L5.27835052,3.95876289 C5.64123711,3.97525773 5.90515464,4.14020619 6.96082474,5.49278351 C7.2742268,5.88865979 7.6371134,6.23505155 8.06597938,6.51546392 L8.82474227,7.01030928 C9.17113402,7.24123711 9.27010309,7.68659794 9.03917526,8.03298969 C8.80824742,8.37938144 8.3628866,8.47835052 8.01649485,8.24742268 L7.25773196,7.75257732 C6.72989691,7.40618557 6.25154639,6.97731959 5.8556701,6.48247423 L5.26185567,9.30309278 L6.41649485,10.4247423 C6.87835052,10.8701031 7.20824742,11.4474227 7.35670103,12.0907216 L8.03298969,14.8453608 C8.14845361,15.3237113 7.85154639,15.8020619 7.37319588,15.9175258 C7.30721649,15.9340206 7.22474227,15.9505155 7.15876289,15.9505155 C6.7628866,15.9505155 6.4,15.6865979 6.30103093,15.2742268 L5.62474227,12.5195876 C5.54226804,12.2061856 5.39381443,11.9257732 5.1628866,11.7113402 L4.00824742,10.5896907 L3.89278351,11.3649485 C3.82680412,11.7608247 3.71134021,12.1402062 3.54639175,12.5030928 L2.16082474,15.4391753 C2.01237113,15.7525773 1.68247423,15.9505155 1.35257732,15.9505155 C1.22061856,15.9505155 1.10515464,15.9175258 0.973195876,15.8680412 C0.527835052,15.6536082 0.346391753,15.1257732 0.544329897,14.6804124 L1.92989691,11.7443299 C2.02886598,11.5463918 2.09484536,11.3154639 2.12783505,11.1010309 L2.52371134,8.46185567 L2.80412371,6.18556701 C2.42474227,6.53195876 2.09484536,6.92783505 1.83092784,7.38969072 L1.46804124,8.04948454 C1.33608247,8.29690722 1.07216495,8.42886598 0.824742268,8.42886598 C0.709278351,8.42886598 0.577319588,8.39587629 0.478350515,8.34639175 C0.115463918,8.16494845 -0.0164948454,7.71958763 0.164948454,7.35670103 Z" id="Shape"></path>
            <circle id="Oval" transform="translate(4.893044, 1.886929) rotate(-83.788255) translate(-4.893044, -1.886929) " cx="4.89304398" cy="1.88692851" r="1.63294237"></circle>
        </g>
    </g>
</svg>