<?xml version="1.0" encoding="UTF-8"?>
<svg width="21px" height="33px" viewBox="0 0 21 33" version="1.1" xmlns="http://www.w3.org/2000/svg" xmlns:xlink="http://www.w3.org/1999/xlink">
    <!-- Generator: Sketch 50.2 (55047) - http://www.bohemiancoding.com/sketch -->
    <title>noun_1151957_cc</title>
    <desc>Created with Sketch.</desc>
    <defs></defs>
    <g id="Page-1" stroke="none" stroke-width="1" fill="none" fill-rule="evenodd">
        <g id="noun_1151957_cc" fill="#563D7C" fill-rule="nonzero">
            <path d="M20.2457076,25.1525045 L20.2457076,8.50461861 C20.2457076,6.98746715 19.0043843,5.74616529 17.4872329,5.74616529 L15.6214483,5.74616529 L18.5984234,2.76916869 C19.1269818,2.24061037 19.1269818,1.37570642 18.5984234,0.847148094 C18.0698651,0.318589769 17.2049398,0.318589769 16.6763814,0.847148094 L11.7773642,5.74616529 L8.43146216,5.74616529 L11.4084373,2.76916869 C11.9369957,2.24061037 11.9369957,1.37570642 11.4084373,0.847148094 C10.879879,0.318589769 10.0149537,0.318589769 9.48639534,0.847148094 L4.58737814,5.74616529 L3.40276182,5.74616529 C1.88558896,5.74616529 0.6442871,6.98746715 0.6442871,8.50461861 L0.6442871,25.1525045 C0.6442871,26.6696774 1.88558896,27.9109792 3.40276182,27.9109792 L3.57782763,27.9109792 L1.35653824,30.13229 C0.827979916,30.6608483 0.827979916,31.5257523 1.35653824,32.0543106 C1.88509657,32.5828689 2.75002191,32.5828689 3.27858023,32.0543106 L7.42191162,27.9109792 L13.7571407,27.9109792 L17.9004721,32.0543106 C18.4290304,32.5828689 19.2939557,32.5828689 19.822514,32.0543106 C20.3510724,31.5257523 20.3510724,30.6608483 19.822514,30.13229 L17.6012247,27.9109792 L17.4872329,27.9109792 C19.0043843,27.9109792 20.2457076,26.6696774 20.2457076,25.1525045 Z M10.5895155,24.5644135 C9.68556535,24.5644135 8.95278494,23.8316331 8.95278494,22.9276829 C8.95278494,22.0237328 9.68556535,21.290931 10.5895155,21.290931 C11.4934656,21.290931 12.2262674,22.0237328 12.2262674,22.927683 C12.2262674,23.8316331 11.4934656,24.5644135 10.5895155,24.5644135 Z M17.9580996,18.0758894 L2.93189513,18.0758894 L2.93189513,9.06092032 C2.93189513,8.66686167 3.25132924,8.34740616 3.6453879,8.34740616 L17.2446068,8.34740616 C17.6386655,8.34740616 17.9580996,8.66686167 17.9580996,9.06092032 L17.9580996,18.0758894 Z" id="Shape"></path>
        </g>
    </g>
</svg>