<?xml version="1.0" encoding="UTF-8"?>
<svg width="30px" height="30px" viewBox="0 0 30 30" version="1.1" xmlns="http://www.w3.org/2000/svg" xmlns:xlink="http://www.w3.org/1999/xlink">
    <!-- Generator: Sketch 50.2 (55047) - http://www.bohemiancoding.com/sketch -->
    <title>noun_1779459_cc</title>
    <desc>Created with Sketch.</desc>
    <defs></defs>
    <g id="Page-1" stroke="none" stroke-width="1" fill="none" fill-rule="evenodd">
        <g id="noun_1779459_cc" fill="#FFFFFF" fill-rule="nonzero">
            <g id="Group">
                <path d="M3.7875,21.2625 C6.1875,23.6625 9.375,24.9 12.525,24.9 C15.7125,24.9 18.8625,23.7 21.2625,21.2625 C26.1,16.425 26.1,8.5875 21.2625,3.75 C16.425,-1.0875 8.5875,-1.0875 3.75,3.75 C-1.05,8.5875 -1.05,16.4625 3.7875,21.2625 Z M5.36411621,5.36411621 C7.35453763,3.37369478 9.93859352,2.3959439 12.5226494,2.3959439 C15.1067053,2.3959439 17.7256809,3.37369478 19.6811826,5.36411621 C23.6271058,9.31003939 23.6271058,15.7352594 19.6811826,19.6811826 C15.7352594,23.6271058 9.31003939,23.6271058 5.36411621,19.6811826 C1.41819303,15.7352594 1.41819303,9.31003939 5.36411621,5.36411621 Z" id="Shape"></path>
                <path d="M22.05,22.05 C21.1125,22.9875 20.1,23.7375 19.0125,24.3375 L23.3625,28.6875 C24.825,30.15 27.1875,30.15 28.65,28.6875 C30.1125,27.225 30.1125,24.8625 28.65,23.4 L24.3375,19.05 C23.7375,20.1375 22.9875,21.15 22.05,22.05 Z" id="Shape"></path>
            </g>
        </g>
    </g>
</svg>