<?xml version="1.0" encoding="utf-8"?>
<!-- Generator: Adobe Illustrator 19.2.1, SVG Export Plug-In . SVG Version: 6.00 Build 0)  -->
<svg version="1.1" id="Warstwa_1" xmlns="http://www.w3.org/2000/svg" xmlns:xlink="http://www.w3.org/1999/xlink" x="0px" y="0px"
	 viewBox="0 0 23 21" style="enable-background:new 0 0 23 21;" xml:space="preserve">
<style type="text/css">
	.st0{fill:#29D9C2;}
</style>
<g>
	<circle class="st0" cx="16" cy="15" r="1"/>
	<circle class="st0" cx="13" cy="15" r="1"/>
	<circle class="st0" cx="10" cy="15" r="1"/>
	<circle class="st0" cx="7" cy="15" r="1"/>
	<circle class="st0" cx="16" cy="11.5" r="1"/>
	<circle class="st0" cx="13" cy="11.5" r="1"/>
	<circle class="st0" cx="10" cy="11.5" r="1"/>
	<circle class="st0" cx="7" cy="11.5" r="1"/>
	<path class="st0" d="M19,3.5h-2V2c0-0.6-0.4-1-1-1s-1,0.4-1,1v1.5H8V2c0-0.6-0.4-1-1-1S6,1.4,6,2v1.5H4c-1.1,0-2,0.9-2,2V18
		c0,1.1,0.9,2,2,2h15c1.1,0,2-0.9,2-2V5.5C21,4.4,20.1,3.5,19,3.5z M19,18H4L4,5.5h0h2V7c0,0.6,0.4,1,1,1s1-0.4,1-1V5.5h7V7
		c0,0.6,0.4,1,1,1s1-0.4,1-1V5.5h2V18z"/>
</g>
</svg>
