<?xml version="1.0" encoding="utf-8"?>
<!-- Generator: Adobe Illustrator 19.2.1, SVG Export Plug-In . SVG Version: 6.00 Build 0)  -->
<svg version="1.1" id="Warstwa_1" xmlns="http://www.w3.org/2000/svg" xmlns:xlink="http://www.w3.org/1999/xlink" x="0px" y="0px"
	 viewBox="0 0 23 22" style="enable-background:new 0 0 23 22;" xml:space="preserve">
<style type="text/css">
	.st0{fill:#29D9C2;}
</style>
<path class="st0" d="M11,22C4.9,22,0,17.1,0,11S4.9,0,11,0s11,4.9,11,11S17.1,22,11,22z M11,2c-5,0-9,4-9,9s4,9,9,9c5,0,9-4,9-9
	S16,2,11,2z"/>
<path class="st0" d="M14.5,14.5c-0.2,0-0.4-0.1-0.6-0.2l-3.5-2.5C10.2,11.6,10,11.3,10,11V5.5c0-0.6,0.4-1,1-1s1,0.4,1,1v5l3.1,2.2
	c0.4,0.3,0.6,0.9,0.2,1.4C15.1,14.4,14.8,14.5,14.5,14.5z"/>
</svg>
