<?xml version="1.0" encoding="utf-8"?>
<!-- Generator: Adobe Illustrator 19.2.1, SVG Export Plug-In . SVG Version: 6.00 Build 0)  -->
<svg version="1.1" id="Warstwa_1" xmlns="http://www.w3.org/2000/svg" xmlns:xlink="http://www.w3.org/1999/xlink" x="0px" y="0px"
	 viewBox="0 0 23 10" style="enable-background:new 0 0 23 10;" xml:space="preserve">
<style type="text/css">
	.st0{fill:#29D9C2;}
</style>
<g id="Warstwa_3">
</g>
<g id="Warstwa_2">
	<g>
		<circle class="st0" cx="4" cy="5" r="4"/>
		<path class="st0" d="M22.9,5.4L22.9,5.4C23,5.3,23,5.1,23,5s0-0.3-0.1-0.4l0,0c-0.1-0.1-0.1-0.2-0.2-0.3l0,0l-4.2-4
			c-0.4-0.4-1-0.4-1.4,0s-0.4,1,0,1.4L19.5,4H10C9.4,4,9,4.4,9,5s0.4,1,1,1h9.5l-2.4,2.3c-0.4,0.4-0.4,1,0,1.4
			c0.2,0.2,0.5,0.3,0.7,0.3s0.5-0.1,0.7-0.3l4.2-4l0,0C22.8,5.6,22.8,5.5,22.9,5.4z"/>
	</g>
</g>
</svg>
