<?xml version="1.0" encoding="utf-8"?>
<!-- Generator: Adobe Illustrator 19.2.1, SVG Export Plug-In . SVG Version: 6.00 Build 0)  -->
<svg version="1.1" xmlns="http://www.w3.org/2000/svg" xmlns:xlink="http://www.w3.org/1999/xlink" x="0px" y="0px"
	 viewBox="0 0 23 10" style="enable-background:new 0 0 23 10;" xml:space="preserve">
<style type="text/css">
	.st0{fill:#29D9C2;}
</style>
<g id="Warstwa_3">
</g>
<g id="Warstwa_2">
	<g>
		<circle class="st0" cx="19" cy="5" r="4"/>
		<path class="st0" d="M13.9,5.4C13.9,5.4,13.9,5.4,13.9,5.4C14,5.3,14,5.1,14,5s0-0.3-0.1-0.4c0,0,0,0,0,0
			c-0.1-0.1-0.1-0.2-0.2-0.3c0,0,0,0,0,0l-4.2-4c-0.4-0.4-1-0.4-1.4,0c-0.4,0.4-0.4,1,0,1.4L10.5,4H1C0.4,4,0,4.4,0,5s0.4,1,1,1h9.5
			L8.1,8.3c-0.4,0.4-0.4,1,0,1.4C8.3,9.9,8.6,10,8.8,10c0.2,0,0.5-0.1,0.7-0.3l4.2-4c0,0,0,0,0,0C13.8,5.6,13.8,5.5,13.9,5.4z"/>
	</g>
</g>
</svg>
