<?xml version="1.0" encoding="utf-8"?>
<!-- Generator: Adobe Illustrator 19.2.1, SVG Export Plug-In . SVG Version: 6.00 Build 0)  -->
<svg version="1.1" id="Warstwa_1" xmlns="http://www.w3.org/2000/svg" xmlns:xlink="http://www.w3.org/1999/xlink" x="0px" y="0px"
	 viewBox="0 0 11 15" style="enable-background:new 0 0 11 15;" xml:space="preserve">
<style type="text/css">
	.st0{fill:#BBBBBB;}
</style>
<path class="st0" d="M6.3,0C7,0,7.6,0.6,7.6,1.4S7,2.8,6.3,2.8c-0.7,0-1.3-0.6-1.3-1.4S5.6,0,6.3,0z M8.9,14.3
	C9,14.6,8.8,14.9,8.5,15c-0.3,0.1-0.6-0.1-0.7-0.5l-0.7-3.2l0-0.1l-2-2.4L4.6,8.7l-0.3,2.2c0,0.1-0.2,0.5-0.3,0.6l-1.9,3.1
	c-0.2,0.3-0.5,0.4-0.8,0.2C1,14.6,0.9,14.2,1.1,14l2-3.2l0.4-3.2c0-0.1,0.3-1.3,0.7-3L2.7,5.3L2.3,7.4C2.3,7.6,2,7.8,1.8,7.8
	C1.5,7.7,1.3,7.5,1.4,7.2l0.4-2.1c0,0,0.1-0.4,0.3-0.5l2.6-1.4c0,0,0.5-0.3,0.9-0.3c0.7,0,1.2,0.3,1.3,0.9L7.9,6l0,0l1.8,0.8
	C10,6.9,10.1,7.2,10,7.5C9.9,7.7,9.6,7.8,9.3,7.7L7.4,6.9C7.3,6.9,7.2,6.7,7.1,6.5l-0.5-1L6,8.1l2,2.4c0.1,0.1,0.2,0.5,0.2,0.5
	L8.9,14.3z"/>
</svg>
