<?xml version="1.0" encoding="utf-8"?>
<!-- Generator: Adobe Illustrator 19.2.1, SVG Export Plug-In . SVG Version: 6.00 Build 0)  -->
<svg version="1.1" id="Warstwa_1" xmlns="http://www.w3.org/2000/svg" xmlns:xlink="http://www.w3.org/1999/xlink" x="0px" y="0px"
	 viewBox="0 0 11 15" style="enable-background:new 0 0 11 15;" xml:space="preserve">
<style type="text/css">
	.st0{fill:#BBBBBB;}
</style>
<g>
	<path class="st0" d="M8.5,11.3C9,11.2,9.4,11,9.7,10.6c0.3-0.4,0.5-0.8,0.5-1.3V2c0-0.5-0.2-1-0.6-1.4C9.2,0.2,8.8,0,8.2,0H2.8
		c-0.6,0-1,0.2-1.4,0.6C1,1,0.8,1.4,0.8,2v7.3c0,0.5,0.2,0.9,0.5,1.3C1.6,11,2,11.2,2.5,11.3L0,15h1.4l0.2-0.4h7.7L9.6,15H11
		L8.5,11.3z M8.8,10c-0.2,0.2-0.4,0.3-0.7,0.3c-0.2,0-0.5-0.1-0.6-0.3C7.3,9.9,7.2,9.6,7.2,9.4c0-0.3,0.1-0.5,0.3-0.7
		c0.2-0.2,0.4-0.3,0.6-0.3c0.3,0,0.5,0.1,0.7,0.3C9,8.9,9,9.1,9,9.4C9,9.6,9,9.9,8.8,10z M2,2.2c0-0.3,0.1-0.5,0.3-0.7
		c0.2-0.2,0.4-0.3,0.7-0.3h5.1c0.3,0,0.5,0.1,0.7,0.3C8.9,1.7,9,1.9,9,2.2v2.3C9,4.8,8.9,5,8.7,5.2C8.6,5.3,8.3,5.4,8.1,5.4H2.9
		c-0.3,0-0.5-0.1-0.7-0.3C2.1,5,2,4.8,2,4.5V2.2L2,2.2z M2.2,10C2,9.9,2,9.6,2,9.4C2,9.1,2,8.9,2.2,8.7c0.2-0.2,0.4-0.3,0.7-0.3
		c0.2,0,0.5,0.1,0.6,0.3c0.2,0.2,0.3,0.4,0.3,0.7c0,0.3-0.1,0.5-0.3,0.7c-0.2,0.2-0.4,0.3-0.6,0.3C2.6,10.3,2.4,10.2,2.2,10z
		 M2.4,13.4l0.6-1h4.9l0.6,1H2.4z"/>
</g>
</svg>
